# xmcd
#
# Track frame offsets: 
#        150
#        18560
#        29405
#        44525
#        67205
#        79050
#        88532
#        100592
#        108985
#        125502
#        137802
#        154077
#        172000
#        183691
#
# Disc length: 2813 seconds
#
# Revision: 7
# Processed by: cddbd v1.5.2PL0 Copyright (c) Steve Scherf et al.
# Submitted via: ExactAudioCopyFreeDBPlugin 1.0
#
DISCID=c10afb0e
DTITLE=The Byrds - 1971 - Byrdmaniax
DYEAR=1971
DGENRE=
TTITLE0=Glory, Glory
TTITLE1=Pale Blue
TTITLE2=I Trust
TTITLE3=Tunnel Of Love
TTITLE4=Citizen Kane
TTITLE5=I Wanna Grow Up To Be A Politician
TTITLE6=Absolute Happiness
TTITLE7=Green Apple Quick Step
TTITLE8=My Destiny
TTITLE9=Kathleen's Song
TTITLE10=Jamaica Say You Will
TTITLE11=Just Like A Woman
TTITLE12=Pale Blue [Alternate Version]
TTITLE13=Think I'm Gonna Feel Better
EXTD=
EXTT0=
EXTT1=
EXTT2=
EXTT3=
EXTT4=
EXTT5=
EXTT6=
EXTT7=
EXTT8=
EXTT9=
EXTT10=
EXTT11=
EXTT12=
EXTT13=
PLAYORDER=
